<?xml version="1.0" standalone="no"?>
<!DOCTYPE svg PUBLIC "-//W3C//DTD SVG 20010904//EN"
 "http://www.w3.org/TR/2001/REC-SVG-20010904/DTD/svg10.dtd">
<svg version="1.0" xmlns="http://www.w3.org/2000/svg"
 width="600.000000pt" height="288.000000pt" viewBox="0 0 600.000000 288.000000"
 preserveAspectRatio="xMidYMid meet">

<g transform="translate(0.000000,288.000000) scale(0.100000,-0.100000)"
fill="#000000" stroke="none">
<path d="M1162 2750 c-310 -39 -591 -182 -802 -407 -175 -188 -286 -404 -337
-660 -26 -131 -23 -376 5 -510 57 -263 170 -470 362 -663 192 -193 393 -302
668 -362 138 -30 386 -30 524 0 275 60 476 169 668 362 260 261 384 561 384
930 0 369 -124 669 -384 930 -245 246 -536 372 -885 384 -71 3 -163 1 -203 -4z
m543 -210 c4 -6 12 -7 18 -3 19 12 57 3 124 -27 91 -41 158 -89 144 -103 -7
-7 -19 -12 -28 -12 -9 0 -21 -8 -27 -18 -9 -14 -7 -21 7 -31 16 -13 24 -36 11
-36 -3 0 -21 14 -39 31 -23 22 -31 37 -27 52 4 18 2 19 -23 13 -21 -5 -31 -2
-42 14 -21 30 -34 15 -27 -31 4 -21 3 -39 -1 -39 -5 0 -23 11 -41 25 -27 21
-38 24 -53 15 -11 -5 -27 -10 -35 -10 -21 0 -59 61 -46 74 6 6 -1 14 -21 23
-32 13 -31 33 2 33 10 0 27 9 36 20 18 21 58 27 68 10z m155 -169 c0 -5 -7
-11 -15 -15 -15 -5 -20 5 -8 17 9 10 23 9 23 -2z m-1301 -118 c-1 -49 1 -125
6 -170 7 -72 6 -83 -9 -89 -25 -10 -21 -90 8 -156 43 -98 86 -238 86 -283 0
-26 8 -58 21 -79 23 -39 42 -186 29 -222 -5 -11 -34 -43 -64 -69 -31 -26 -56
-53 -56 -59 0 -20 79 -98 91 -91 6 4 20 27 31 51 23 53 44 56 64 9 24 -57 19
-92 -16 -110 -34 -18 -33 -16 -21 -47 5 -13 15 -42 22 -65 14 -50 24 -54 33
-15 27 115 41 134 70 89 11 -15 16 -52 17 -114 1 -75 -2 -96 -17 -117 -11 -14
-22 -26 -27 -26 -13 0 -47 64 -47 90 0 20 -2 22 -10 10 -6 -8 -15 -32 -20 -52
-6 -21 -14 -38 -19 -38 -4 0 -20 -11 -35 -25 -20 -19 -25 -29 -18 -42 14 -27
22 -105 15 -146 l-5 -36 -39 19 c-66 34 -229 201 -229 235 0 11 40 -16 74 -51
39 -40 54 -40 75 0 12 22 12 30 1 51 -8 15 -22 25 -35 25 -29 0 -41 18 -38 55
2 17 3 47 3 67 0 20 4 39 9 42 5 4 25 -16 45 -44 21 -30 41 -47 49 -44 15 5
47 97 47 133 0 16 -11 27 -46 41 -55 24 -77 25 -95 4 -8 -10 -22 -14 -40 -10
-23 4 -29 0 -44 -30 -9 -19 -27 -39 -41 -44 -24 -9 -34 -30 -14 -30 6 0 10
-12 10 -27 0 -15 5 -41 12 -60 14 -38 6 -52 -18 -32 -30 24 -85 119 -91 154
-3 19 -14 42 -24 51 -25 22 -77 187 -92 286 -6 43 -15 78 -19 78 -4 0 -8 54
-8 120 0 73 4 120 10 120 6 0 10 15 10 33 1 52 36 197 69 283 39 100 106 218
177 310 51 67 136 154 150 154 3 0 5 -39 3 -87z m1166 67 c27 -30 7 -44 -57
-41 -50 2 -28 60 23 61 9 0 24 -9 34 -20z m552 -158 c107 -141 176 -301 220
-503 21 -97 23 -306 4 -408 -24 -138 -98 -340 -133 -368 -20 -16 -76 -24 -84
-12 -3 6 -1 22 6 35 10 17 10 27 2 37 -19 23 -53 147 -47 168 4 11 2 25 -3 32
-6 7 -12 57 -15 112 -3 64 -11 111 -21 130 -17 33 -21 82 -7 104 7 11 14 10
37 -6 22 -16 49 -21 114 -24 l85 -4 3 145 c4 175 -1 206 -31 216 -12 4 -67 10
-122 13 -99 6 -100 6 -97 31 1 14 7 67 13 118 9 70 9 100 0 119 -13 27 -4 156
10 148 4 -3 34 -40 66 -83z m-717 -22 c8 -14 21 -20 45 -20 19 0 35 5 35 10 0
6 14 10 30 10 28 0 36 -11 28 -37 -2 -5 -25 -8 -52 -8 -40 0 -50 -4 -57 -21
-5 -15 -2 -27 10 -41 16 -17 16 -20 1 -35 -9 -9 -25 -17 -35 -17 -11 0 -27 -1
-35 -2 -51 -7 -67 1 -73 36 -7 42 20 125 39 118 6 -2 18 3 25 11 19 20 26 20
39 -4z m110 -79 c0 -9 -41 -23 -48 -16 -2 2 -1 8 3 14 8 13 45 15 45 2z m-374
-31 c13 0 33 5 44 12 23 15 74 -8 66 -29 -4 -9 0 -13 11 -11 24 4 28 -29 5
-41 -11 -6 -38 -13 -60 -17 -35 -5 -42 -3 -52 16 -6 12 -9 31 -7 42 5 17 2 19
-23 16 -21 -3 -30 0 -33 13 -6 24 5 34 15 14 5 -8 20 -15 34 -15z m871 -302
c-3 -7 -5 -2 -5 12 0 14 2 19 5 13 2 -7 2 -19 0 -25z m3 -84 c0 -8 -4 -12 -10
-9 -5 3 -10 10 -10 16 0 5 5 9 10 9 6 0 10 -7 10 -16z m-150 -66 c33 -24 37
-40 15 -58 -8 -7 -13 -16 -10 -20 3 -4 -2 -10 -10 -14 -8 -3 -15 -12 -15 -21
0 -10 -9 -15 -27 -14 -24 0 -25 2 -9 8 19 7 19 8 -3 14 -15 4 -29 -1 -42 -14
-22 -22 -42 -17 -63 16 -14 21 -13 24 3 39 10 9 23 16 30 16 7 0 10 7 6 19 -8
27 17 43 83 50 7 0 26 -9 42 -21z m-974 -134 c27 -12 34 -19 24 -23 -8 -3 -27
-14 -42 -24 -28 -20 -69 -20 -75 -1 -2 6 6 15 19 18 23 7 22 9 -20 22 -22 7
-3 24 27 24 16 0 46 -7 67 -16z m445 -61 c0 -5 2 -18 5 -30 4 -21 -19 -39 -36
-28 -7 4 -7 49 -1 63 3 6 31 1 32 -5z m169 -298 c-28 -34 -98 -62 -172 -69
-62 -5 -77 -4 -81 8 -3 8 -21 19 -38 24 -38 9 -48 26 -22 37 10 3 65 8 123 11
58 2 125 8 150 12 47 8 60 1 40 -23z m520 -141 c0 -19 5 -44 10 -54 6 -11 13
-46 17 -79 6 -67 -4 -91 -41 -91 -29 0 -53 49 -62 127 -6 57 -5 61 26 96 18
21 36 37 41 37 5 0 9 -16 9 -36z m-187 -75 c8 -44 0 -168 -12 -203 -5 -11 0
-33 11 -54 22 -45 23 -75 2 -93 -13 -11 -20 -11 -42 2 -43 24 -51 119 -10 119
15 0 18 4 13 18 -12 28 -19 92 -18 158 1 103 40 140 56 53z m307 -102 c0 -8
-9 -22 -20 -32 -17 -16 -20 -16 -20 -2 0 26 11 47 26 47 8 0 14 -6 14 -13z
m-1428 -142 c6 -43 17 -138 20 -185 3 -40 -4 -50 -41 -61 -29 -9 -43 -8 -61 1
-26 14 -25 17 10 184 24 114 26 118 48 114 12 -2 19 -19 24 -53z m1341 24
c-16 -28 -83 -89 -97 -89 -3 0 -6 13 -6 28 0 32 30 64 75 80 46 16 48 14 28
-19z m-323 7 c0 -7 -5 -27 -11 -45 -9 -25 -14 -29 -24 -21 -12 10 -11 17 3 45
18 36 32 45 32 21z"/>
<path d="M2285 1120 c28 -12 37 -12 30 0 -3 6 -16 10 -28 9 -21 0 -21 -1 -2
-9z"/>
<path d="M2351 1101 c-16 -11 0 -45 29 -61 21 -11 25 -8 35 38 6 30 5 32 -22
32 -15 0 -34 -4 -42 -9z"/>
<path d="M3180 1860 l0 -260 40 0 40 0 0 260 0 260 -40 0 -40 0 0 -260z"/>
<path d="M4690 1860 l0 -260 40 0 40 0 0 260 0 260 -40 0 -40 0 0 -260z"/>
<path d="M4870 2045 l0 -45 50 0 50 0 0 45 0 45 -50 0 -50 0 0 -45z"/>
<path d="M2875 1935 c-22 -8 -41 -15 -42 -15 -6 0 -3 -20 7 -45 9 -23 13 -25
26 -14 8 7 38 13 65 13 53 1 69 -11 69 -51 0 -19 -5 -23 -31 -23 -82 0 -159
-51 -159 -106 0 -38 28 -84 58 -95 35 -13 85 -4 107 21 23 25 35 25 35 0 0
-16 7 -20 35 -20 l35 0 0 135 c0 160 -9 188 -68 204 -50 14 -89 13 -137 -4z
m125 -212 c0 -36 -27 -63 -62 -63 -21 0 -31 6 -37 23 -15 41 11 65 72 66 23 1
27 -3 27 -26z"/>
<path d="M3771 1937 c-19 -6 -47 -29 -64 -49 -62 -77 -43 -233 35 -274 37 -21
136 -23 180 -6 25 10 26 13 16 42 -8 24 -14 29 -27 24 -9 -4 -37 -9 -62 -12
-39 -3 -50 0 -68 19 -11 13 -21 31 -21 41 0 16 10 18 100 18 l100 0 0 50 c0
58 -18 106 -48 134 -26 23 -96 30 -141 13z m98 -89 c17 -47 15 -48 -49 -48
-48 0 -60 3 -60 16 0 41 43 77 81 67 10 -3 23 -19 28 -35z"/>
<path d="M4093 1939 c-41 -12 -63 -43 -63 -89 0 -48 15 -66 86 -103 48 -26 59
-37 59 -57 0 -21 -5 -26 -32 -28 -17 -2 -46 4 -63 13 -18 9 -33 15 -34 13 -1
-2 -7 -15 -14 -30 -11 -26 -9 -29 18 -43 16 -8 55 -15 89 -15 49 0 65 4 89 25
68 57 50 122 -48 175 -46 25 -65 41 -65 55 0 17 7 20 45 19 25 0 52 -3 61 -7
11 -6 19 0 27 18 16 35 17 34 -23 51 -38 16 -84 17 -132 3z"/>
<path d="M4385 1935 c-22 -8 -41 -15 -42 -15 -6 0 -3 -20 7 -44 9 -25 10 -25
46 -10 43 18 99 12 108 -12 15 -39 7 -54 -29 -54 -40 0 -100 -22 -127 -47 -26
-24 -33 -75 -13 -112 30 -58 104 -65 157 -14 l28 27 0 -27 c0 -24 4 -27 35
-27 l35 0 0 135 c0 160 -9 188 -68 204 -50 14 -89 13 -137 -4z m125 -213 c0
-37 -30 -64 -67 -60 -24 2 -28 8 -31 36 -4 35 17 50 71 51 23 1 27 -3 27 -27z"/>
<path d="M5470 1936 c-21 -8 -47 -29 -65 -55 -27 -38 -30 -51 -30 -116 0 -67
3 -76 31 -112 42 -52 99 -70 173 -55 67 14 75 22 60 56 -9 19 -17 25 -28 20
-9 -4 -37 -9 -62 -12 -41 -3 -49 -1 -68 23 -38 49 -31 54 82 57 l102 3 -3 55
c-8 126 -79 176 -192 136z m100 -77 c6 -10 10 -27 10 -38 0 -19 -6 -21 -60
-21 -33 0 -60 3 -60 8 1 30 17 56 43 67 35 15 53 10 67 -16z"/>
<path d="M3379 1773 c66 -162 70 -168 99 -171 30 -3 30 -2 77 120 27 68 56
144 66 171 l19 47 -45 0 -44 0 -33 -105 c-18 -57 -35 -105 -38 -105 -3 1 -21
48 -40 105 l-34 105 -48 0 -47 0 68 -167z"/>
<path d="M4880 1770 l0 -170 40 0 40 0 0 170 0 170 -40 0 -40 0 0 -170z"/>
<path d="M5020 1933 c0 -4 30 -81 67 -171 l66 -163 31 3 c29 3 32 8 88 153 32
83 61 158 64 168 4 14 -1 17 -38 17 l-44 0 -36 -112 c-29 -90 -37 -107 -43
-87 -4 13 -21 63 -37 112 l-31 87 -43 0 c-24 0 -44 -3 -44 -7z"/>
<path d="M3039 1178 c0 -62 -3 -107 -6 -100 -7 18 -58 42 -90 42 -41 0 -92
-36 -109 -76 -18 -44 -21 -138 -5 -185 33 -102 166 -132 201 -46 8 20 9 18 9
-10 1 -32 3 -33 41 -33 l40 0 0 260 0 260 -40 0 -40 0 -1 -112z m-34 -142 c15
-11 20 -29 23 -82 3 -59 1 -73 -18 -96 -40 -52 -92 -27 -106 49 -18 96 42 172
101 129z"/>
<path d="M3273 1101 c-56 -26 -83 -78 -83 -161 0 -116 54 -175 159 -173 66 2
97 22 129 84 19 36 23 55 19 106 -6 74 -29 119 -77 144 -44 24 -94 24 -147 0z
m117 -78 c19 -24 21 -38 18 -92 -3 -52 -8 -67 -27 -82 -31 -25 -47 -24 -76 6
-22 21 -25 33 -25 90 0 52 4 69 20 85 28 28 64 25 90 -7z"/>
<path d="M3662 1108 c-56 -19 -102 -99 -102 -177 0 -43 29 -109 58 -134 30
-27 96 -40 140 -27 61 17 67 23 52 59 -11 29 -14 30 -33 16 -29 -21 -70 -19
-98 4 -21 17 -24 28 -24 91 0 64 3 74 25 92 24 19 44 20 96 3 18 -5 23 -1 32
24 8 23 7 32 -4 42 -20 16 -102 20 -142 7z"/>
<path d="M3930 1102 c-42 -20 -64 -61 -55 -101 8 -36 25 -52 95 -89 64 -35 78
-67 34 -78 -25 -6 -39 -3 -95 20 -11 5 -19 -2 -28 -21 -11 -25 -10 -29 11 -46
19 -16 36 -18 96 -15 66 3 77 6 98 31 27 31 33 92 12 120 -7 9 -40 31 -73 49
-73 41 -82 71 -23 76 20 2 47 -2 58 -8 26 -14 26 -13 35 23 6 24 3 29 -29 42
-47 20 -93 19 -136 -3z"/>
</g>
</svg>
