<?xml version="1.0" standalone="no"?>
<!DOCTYPE svg PUBLIC "-//W3C//DTD SVG 20010904//EN"
 "http://www.w3.org/TR/2001/REC-SVG-20010904/DTD/svg10.dtd">
<svg version="1.0" xmlns="http://www.w3.org/2000/svg"
 width="600.000000pt" height="288.000000pt" viewBox="0 0 600.000000 288.000000"
 preserveAspectRatio="xMidYMid meet">

<g transform="translate(0.000000,288.000000) scale(0.100000,-0.100000)"
fill="#000000" stroke="none">
<path d="M1145 2625 c-106 -20 -186 -47 -314 -107 -118 -56 -235 -129 -256
-162 -17 -26 -22 -158 -10 -273 7 -72 6 -83 -9 -89 -25 -10 -21 -90 8 -156 43
-98 86 -238 86 -283 0 -26 8 -58 21 -79 23 -39 42 -186 29 -222 -5 -11 -34
-43 -64 -69 -31 -26 -56 -53 -56 -59 0 -20 79 -98 91 -91 6 4 20 27 31 51 23
53 44 56 64 9 24 -57 19 -92 -16 -110 -34 -18 -33 -16 -21 -47 5 -13 15 -42
22 -65 14 -50 24 -54 33 -15 27 115 41 134 70 89 11 -15 16 -52 17 -114 1 -75
-2 -96 -17 -117 -11 -14 -22 -26 -27 -26 -13 0 -47 64 -47 90 0 20 -2 22 -10
10 -6 -8 -15 -32 -20 -52 -6 -21 -14 -38 -19 -38 -4 0 -20 -11 -35 -25 -23
-21 -25 -28 -15 -46 6 -12 12 -57 13 -101 1 -71 4 -82 25 -99 36 -29 47 -23
60 34 6 28 19 88 29 132 15 67 21 80 37 80 21 0 27 -25 40 -160 12 -119 11
-123 -20 -131 -53 -13 -17 -34 143 -85 92 -29 258 -59 327 -59 110 1 294 42
450 102 77 29 253 139 291 181 22 24 34 47 34 65 0 35 30 63 93 86 36 14 48
24 53 44 12 56 16 62 35 62 11 0 28 14 39 33 29 47 26 61 -10 54 -36 -8 -47 7
-30 39 10 17 10 27 2 37 -19 23 -53 147 -47 168 4 11 2 25 -3 32 -6 7 -12 57
-15 112 -3 64 -11 111 -21 130 -17 33 -21 82 -7 104 7 11 14 10 37 -6 22 -16
49 -21 114 -24 l85 -4 3 145 c4 175 -1 206 -31 216 -12 4 -67 10 -122 13 -99
6 -100 6 -97 31 1 14 7 67 13 118 9 70 9 100 0 119 -7 16 -9 48 -5 90 l7 65
-68 64 c-73 68 -127 100 -148 87 -6 -4 -18 -8 -26 -8 -8 0 -19 -8 -25 -18 -9
-14 -7 -21 7 -31 16 -13 24 -36 11 -36 -3 0 -21 14 -39 31 -23 22 -31 37 -27
52 4 18 2 19 -23 13 -21 -5 -31 -2 -42 14 -21 30 -34 15 -27 -31 4 -21 3 -39
-1 -39 -5 0 -23 11 -41 25 -27 21 -38 24 -53 15 -11 -5 -27 -10 -35 -10 -21 0
-59 61 -46 74 6 6 -1 14 -21 23 -32 13 -31 33 2 33 10 0 27 9 36 20 19 22 53
26 70 9 8 -8 13 -8 18 0 3 6 -2 14 -12 17 -10 3 -40 15 -68 26 -94 39 -150 49
-285 53 -93 3 -160 0 -215 -10z m715 -254 c0 -5 -7 -11 -15 -15 -15 -5 -20 5
-8 17 9 10 23 9 23 -2z m-135 -51 c27 -30 7 -44 -57 -41 -50 2 -28 60 23 61 9
0 24 -9 34 -20z m-165 -180 c8 -14 21 -20 45 -20 19 0 35 5 35 10 0 6 14 10
30 10 28 0 36 -11 28 -37 -2 -5 -25 -8 -52 -8 -40 0 -50 -4 -57 -21 -5 -15 -2
-27 10 -41 16 -17 16 -20 1 -35 -9 -9 -25 -17 -35 -17 -11 0 -27 -1 -35 -2
-51 -7 -67 1 -73 36 -7 42 20 125 39 118 6 -2 18 3 25 11 19 20 26 20 39 -4z
m110 -79 c0 -9 -41 -23 -48 -16 -2 2 -1 8 3 14 8 13 45 15 45 2z m-374 -31
c13 0 33 5 44 12 23 15 74 -8 66 -29 -4 -9 0 -13 11 -11 24 4 28 -29 5 -41
-11 -6 -38 -13 -60 -17 -35 -5 -42 -3 -52 16 -6 12 -9 31 -7 42 5 17 2 19 -23
16 -21 -3 -30 0 -33 13 -6 24 5 34 15 14 5 -8 20 -15 34 -15z m871 -302 c-3
-7 -5 -2 -5 12 0 14 2 19 5 13 2 -7 2 -19 0 -25z m3 -84 c0 -8 -4 -12 -10 -9
-5 3 -10 10 -10 16 0 5 5 9 10 9 6 0 10 -7 10 -16z m-150 -66 c33 -24 37 -40
15 -58 -8 -7 -13 -16 -10 -20 3 -4 -2 -10 -10 -14 -8 -3 -15 -12 -15 -21 0
-10 -9 -15 -27 -14 -24 0 -25 2 -9 8 19 7 19 8 -3 14 -15 4 -29 -1 -42 -14
-22 -22 -42 -17 -63 16 -14 21 -13 24 3 39 10 9 23 16 30 16 7 0 10 7 6 19 -8
27 17 43 83 50 7 0 26 -9 42 -21z m-974 -134 c27 -12 34 -19 24 -23 -8 -3 -27
-14 -42 -24 -28 -20 -69 -20 -75 -1 -2 6 6 15 19 18 23 7 22 9 -20 22 -22 7
-3 24 27 24 16 0 46 -7 67 -16z m445 -61 c0 -5 2 -18 5 -30 4 -21 -19 -39 -36
-28 -7 4 -7 49 -1 63 3 6 31 1 32 -5z m169 -298 c-28 -34 -98 -62 -172 -69
-62 -5 -77 -4 -81 8 -3 8 -21 19 -38 24 -38 9 -48 26 -22 37 10 3 65 8 123 11
58 2 125 8 150 12 47 8 60 1 40 -23z m520 -141 c0 -19 5 -44 10 -54 6 -11 13
-46 17 -79 6 -67 -4 -91 -41 -91 -29 0 -53 49 -62 127 -6 57 -5 61 26 96 18
21 36 37 41 37 5 0 9 -16 9 -36z m-187 -75 c8 -44 0 -168 -12 -203 -5 -11 0
-33 11 -54 22 -45 23 -75 2 -93 -13 -11 -20 -11 -42 2 -43 24 -51 119 -10 119
15 0 18 4 13 18 -12 28 -19 92 -18 158 1 103 40 140 56 53z m-103 -213 c0 -7
-5 -27 -11 -45 -9 -25 -14 -29 -24 -21 -12 10 -11 17 3 45 18 36 32 45 32 21z"/>
<path d="M2285 1120 c28 -12 37 -12 30 0 -3 6 -16 10 -28 9 -21 0 -21 -1 -2
-9z"/>
<path d="M2351 1101 c-16 -11 0 -45 29 -61 21 -11 25 -8 35 38 6 30 5 32 -22
32 -15 0 -34 -4 -42 -9z"/>
<path d="M509 984 c-8 -10 -22 -14 -40 -10 -23 4 -29 0 -44 -30 -9 -19 -27
-39 -41 -44 -23 -9 -34 -30 -15 -30 5 0 11 -17 15 -37 16 -107 18 -114 47
-128 15 -8 44 -31 63 -51 39 -40 54 -40 75 0 12 22 12 30 1 51 -8 15 -22 25
-35 25 -29 0 -41 18 -38 55 2 17 3 47 3 67 0 20 4 39 9 42 5 4 25 -16 45 -44
21 -30 41 -47 49 -44 15 5 47 97 47 133 0 16 -11 27 -46 41 -55 24 -77 25 -95
4z"/>
</g>
</svg>
