<?xml version="1.0" encoding="UTF-8" standalone="no" ?>
<!DOCTYPE svg PUBLIC "-//W3C//DTD SVG 1.1//EN" "http://www.w3.org/Graphics/SVG/1.1/DTD/svg11.dtd">
<svg xmlns="http://www.w3.org/2000/svg" xmlns:xlink="http://www.w3.org/1999/xlink" version="1.1" width="1080" height="1080" viewBox="0 0 1080 1080" xml:space="preserve">
<desc>Created with Fabric.js 5.2.4</desc>
<defs>
</defs>
<g transform="matrix(1 0 0 1 540 540)" id="3eeba973-8a06-4c28-8189-0764e6ea359a"  >
<rect style="stroke: none; stroke-width: 1; stroke-dasharray: none; stroke-linecap: butt; stroke-dashoffset: 0; stroke-linejoin: miter; stroke-miterlimit: 4; fill: rgb(255,255,255); fill-rule: nonzero; opacity: 1; visibility: hidden;" vector-effect="non-scaling-stroke"  x="-540" y="-540" rx="0" ry="0" width="1080" height="1080" />
</g>
<g transform="matrix(1 0 0 1 540 540)" id="8fe15d8e-9227-4041-947b-e63d95507af0"  >
</g>
<g transform="matrix(0.17 0 0 0.17 534 542)" style="" id="613c57c9-c452-44ca-9dd6-10154d7ff15c"  >
		<text xml:space="preserve" font-family="Raleway" font-size="105" font-style="normal" font-weight="900" style="stroke: none; stroke-width: 1; stroke-dasharray: none; stroke-linecap: butt; stroke-dashoffset: 0; stroke-linejoin: miter; stroke-miterlimit: 4; fill: rgb(0,30,19); fill-rule: nonzero; opacity: 1; white-space: pre;" ><tspan x="-260.93" y="32.98" >alvesalive</tspan></text>
</g>
<g transform="matrix(0.36 0 0 0.36 595.53 543)" style="" id="46a6dc4d-8640-4eb1-b4ae-3e1ccf115e79"  >
		<text xml:space="preserve" font-family="Lato" font-size="40" font-style="normal" font-weight="700" style="stroke: none; stroke-width: 1; stroke-dasharray: none; stroke-linecap: butt; stroke-dashoffset: 0; stroke-linejoin: miter; stroke-miterlimit: 4; fill: rgb(0,38,25); fill-opacity: 0.6; fill-rule: nonzero; opacity: 1; white-space: pre;" ><tspan x="-44.44" y="12.57" >DOC</tspan></text>
</g>
<g transform="matrix(1 0 0 1 464.95 541.21)"  >
<path style="stroke: none; stroke-width: 1; stroke-dasharray: none; stroke-linecap: butt; stroke-dashoffset: 0; stroke-linejoin: miter; stroke-miterlimit: 4; fill: rgb(255,255,255); fill-rule: nonzero; opacity: 1;" vector-effect="non-scaling-stroke"  transform=" translate(-4.85, -13.38)" d="M 7.95343 21.1394 C 4.89586 21.1304 2.25471 19.458 0.987296 16.2895 C -0.280118 13.121 0.108924 9.16314 1.74363 5.61504 C 4.8012 5.62409 7.44235 7.29648 8.70976 10.465 C 9.97718 13.6335 9.58814 17.5913 7.95343 21.1394 Z" stroke-linecap="round" />
</g>
<g transform="matrix(1 0 0 1 464.95 541.21)"  >
<radialGradient id="SVGID_paint0_radial_115_86_3" gradientUnits="userSpaceOnUse" gradientTransform="matrix(17.68 -3.13 3.1 17.51 -3.01 15.02)"  cx="0" cy="0" r="1" fx="0" fy="0">
<stop offset="0%" style="stop-color:rgb(0,176,187);stop-opacity: 1"/>
<stop offset="100%" style="stop-color:rgb(0,219,101);stop-opacity: 1"/>
</radialGradient>
<path style="stroke: none; stroke-width: 1; stroke-dasharray: none; stroke-linecap: butt; stroke-dashoffset: 0; stroke-linejoin: miter; stroke-miterlimit: 4; fill: url(#SVGID_paint0_radial_115_86_3); fill-rule: nonzero; opacity: 1;" vector-effect="non-scaling-stroke"  transform=" translate(-4.85, -13.38)" d="M 7.95343 21.1394 C 4.89586 21.1304 2.25471 19.458 0.987296 16.2895 C -0.280118 13.121 0.108924 9.16314 1.74363 5.61504 C 4.8012 5.62409 7.44235 7.29648 8.70976 10.465 C 9.97718 13.6335 9.58814 17.5913 7.95343 21.1394 Z" stroke-linecap="round" />
</g>
<g transform="matrix(1 0 0 1 464.95 541.21)"  >
<path style="stroke: none; stroke-width: 1; stroke-dasharray: none; stroke-linecap: butt; stroke-dashoffset: 0; stroke-linejoin: miter; stroke-miterlimit: 4; fill: rgb(0,0,0); fill-opacity: 0.5; fill-rule: nonzero; opacity: 1;" vector-effect="non-scaling-stroke"  transform=" translate(-4.85, -13.38)" d="M 7.95343 21.1394 C 4.89586 21.1304 2.25471 19.458 0.987296 16.2895 C -0.280118 13.121 0.108924 9.16314 1.74363 5.61504 C 4.8012 5.62409 7.44235 7.29648 8.70976 10.465 C 9.97718 13.6335 9.58814 17.5913 7.95343 21.1394 Z" stroke-linecap="round" />
</g>
<g transform="matrix(1 0 0 1 464.95 541.21)"  >
<linearGradient id="SVGID_paint1_linear_115_86_4" gradientUnits="userSpaceOnUse" gradientTransform="matrix(1 0 0 1 0 0)"  x1="7.39036" y1="4.81308" x2="1.62975" y2="18.6894">
<stop offset="0%" style="stop-color:rgb(24,226,153);stop-opacity: 0.5"/>
<stop offset="100%" style="stop-color:rgb(0,0,0);stop-opacity: 0.5"/>
</linearGradient>
<path style="stroke: none; stroke-width: 1; stroke-dasharray: none; stroke-linecap: butt; stroke-dashoffset: 0; stroke-linejoin: miter; stroke-miterlimit: 4; fill: url(#SVGID_paint1_linear_115_86_4); fill-rule: nonzero; opacity: 1;" vector-effect="non-scaling-stroke"  transform=" translate(-4.85, -13.38)" d="M 7.95343 21.1394 C 4.89586 21.1304 2.25471 19.458 0.987296 16.2895 C -0.280118 13.121 0.108924 9.16314 1.74363 5.61504 C 4.8012 5.62409 7.44235 7.29648 8.70976 10.465 C 9.97718 13.6335 9.58814 17.5913 7.95343 21.1394 Z" stroke-linecap="round" />
</g>
<g transform="matrix(1 0 0 1 464.95 541.21)"  >
<linearGradient id="SVGID_paint2_linear_115_86_5" gradientUnits="userSpaceOnUse" gradientTransform="matrix(1 0 0 1 0 0)"  x1="7.94816" y1="8.01562" x2="1.7612" y2="18.746">
<stop offset="0%" style="stop-color:rgb(0,0,0);stop-opacity: 0.05"/>
<stop offset="100%" style="stop-color:rgb(0,0,0);stop-opacity: 0"/>
</linearGradient>
<path style="stroke: url(#SVGID_paint2_linear_115_86_5); stroke-width: 0.056338; stroke-dasharray: none; stroke-linecap: butt; stroke-dashoffset: 0; stroke-linejoin: miter; stroke-miterlimit: 4; fill: none; fill-rule: nonzero; opacity: 1;" vector-effect="non-scaling-stroke"  transform=" translate(-4.85, -13.38)" d="M 7.9354 21.1112 C 4.89702 21.0957 2.27411 19.4306 1.01347 16.279 C -0.248375 13.1244 0.135612 9.18218 1.76165 5.64327 C 4.80004 5.65882 7.42295 7.32385 8.68359 10.4755 C 9.94543 13.63 9.56144 17.5723 7.9354 21.1112 Z" stroke-linecap="round" />
</g>
<g transform="matrix(1 0 0 1 471.69 538.95)"  >
<path style="stroke: none; stroke-width: 1; stroke-dasharray: none; stroke-linecap: butt; stroke-dashoffset: 0; stroke-linejoin: miter; stroke-miterlimit: 4; fill: rgb(255,255,255); fill-rule: nonzero; opacity: 1;" vector-effect="non-scaling-stroke"  transform=" translate(-11.59, -11.12)" d="M 7.31038 21.2574 C 11.3543 20.2215 14.8836 17.3754 16.6285 13.2361 C 18.3735 9.09671 17.9448 4.58749 15.8598 0.976291 C 11.8159 2.01214 8.2866 4.85826 6.54167 8.99762 C 4.79674 13.137 5.2254 17.6462 7.31038 21.2574 Z" stroke-linecap="round" />
</g>
<g transform="matrix(1 0 0 1 471.69 538.95)"  >
<radialGradient id="SVGID_paint3_radial_115_86_6" gradientUnits="userSpaceOnUse" gradientTransform="matrix(5.32 -20.96 23.05 5.85 8.11 20.88)"  cx="0" cy="0" r="1" fx="0" fy="0">
<stop offset="0%" style="stop-color:rgb(0,187,187);stop-opacity: 1"/>
<stop offset="71.2616%" style="stop-color:rgb(0,219,101);stop-opacity: 1"/>
</radialGradient>
<path style="stroke: none; stroke-width: 1; stroke-dasharray: none; stroke-linecap: butt; stroke-dashoffset: 0; stroke-linejoin: miter; stroke-miterlimit: 4; fill: url(#SVGID_paint3_radial_115_86_6); fill-rule: nonzero; opacity: 1;" vector-effect="non-scaling-stroke"  transform=" translate(-11.59, -11.12)" d="M 7.31038 21.2574 C 11.3543 20.2215 14.8836 17.3754 16.6285 13.2361 C 18.3735 9.09671 17.9448 4.58749 15.8598 0.976291 C 11.8159 2.01214 8.2866 4.85826 6.54167 8.99762 C 4.79674 13.137 5.2254 17.6462 7.31038 21.2574 Z" stroke-linecap="round" />
</g>
<g transform="matrix(1 0 0 1 471.69 538.95)"  >
<linearGradient id="SVGID_paint4_linear_115_86_7" gradientUnits="userSpaceOnUse" gradientTransform="matrix(1 0 0 1 0 0)"  x1="7.60205" y1="5.8709" x2="15.5561" y2="16.3719">
<stop offset="0%" style="stop-color:rgb(0,0,0);stop-opacity: 0.05"/>
<stop offset="100%" style="stop-color:rgb(0,0,0);stop-opacity: 0"/>
</linearGradient>
<path style="stroke: url(#SVGID_paint4_linear_115_86_7); stroke-width: 0.056338; stroke-dasharray: none; stroke-linecap: butt; stroke-dashoffset: 0; stroke-linejoin: miter; stroke-miterlimit: 4; fill: none; fill-rule: nonzero; opacity: 1;" vector-effect="non-scaling-stroke"  transform=" translate(-11.59, -11.12)" d="M 16.6025 13.2251 C 14.8642 17.349 11.3512 20.1866 7.32411 21.2248 C 5.25257 17.624 4.82926 13.1324 6.56764 9.00855 C 8.30603 4.88472 11.819 2.04706 15.8461 1.00889 C 17.9176 4.60967 18.3409 9.10131 16.6025 13.2251 Z" stroke-linecap="round" />
</g>
<g transform="matrix(1 0 0 1 475.58 546.26)"  >
<path style="stroke: none; stroke-width: 1; stroke-dasharray: none; stroke-linecap: butt; stroke-dashoffset: 0; stroke-linejoin: miter; stroke-miterlimit: 4; fill: rgb(255,255,255); fill-rule: nonzero; opacity: 1;" vector-effect="non-scaling-stroke"  transform=" translate(-15.48, -18.42)" d="M 7.23368 21.2069 C 9.78906 23.2373 13.2102 23.9506 16.5772 22.8141 C 19.9441 21.6775 22.5058 18.9445 23.7304 15.6382 C 21.175 13.6078 17.7538 12.8944 14.3869 14.031 C 11.0199 15.1676 8.45822 17.9006 7.23368 21.2069 Z" stroke-linecap="round" />
</g>
<g transform="matrix(1 0 0 1 475.58 546.26)"  >
<radialGradient id="SVGID_paint5_radial_115_86_8" gradientUnits="userSpaceOnUse" gradientTransform="matrix(17.4 -6.46 6.02 16.24 7.85 21.52)"  cx="0" cy="0" r="1" fx="0" fy="0">
<stop offset="0%" style="stop-color:rgb(0,176,187);stop-opacity: 1"/>
<stop offset="100%" style="stop-color:rgb(0,219,101);stop-opacity: 1"/>
</radialGradient>
<path style="stroke: none; stroke-width: 1; stroke-dasharray: none; stroke-linecap: butt; stroke-dashoffset: 0; stroke-linejoin: miter; stroke-miterlimit: 4; fill: url(#SVGID_paint5_radial_115_86_8); fill-rule: nonzero; opacity: 1;" vector-effect="non-scaling-stroke"  transform=" translate(-15.48, -18.42)" d="M 7.23368 21.2069 C 9.78906 23.2373 13.2102 23.9506 16.5772 22.8141 C 19.9441 21.6775 22.5058 18.9445 23.7304 15.6382 C 21.175 13.6078 17.7538 12.8944 14.3869 14.031 C 11.0199 15.1676 8.45822 17.9006 7.23368 21.2069 Z" stroke-linecap="round" />
</g>
<g transform="matrix(1 0 0 1 475.58 546.26)"  >
<path style="stroke: none; stroke-width: 1; stroke-dasharray: none; stroke-linecap: butt; stroke-dashoffset: 0; stroke-linejoin: miter; stroke-miterlimit: 4; fill: rgb(0,0,0); fill-opacity: 0.2; fill-rule: nonzero; opacity: 1;" vector-effect="non-scaling-stroke"  transform=" translate(-15.48, -18.42)" d="M 7.23368 21.2069 C 9.78906 23.2373 13.2102 23.9506 16.5772 22.8141 C 19.9441 21.6775 22.5058 18.9445 23.7304 15.6382 C 21.175 13.6078 17.7538 12.8944 14.3869 14.031 C 11.0199 15.1676 8.45822 17.9006 7.23368 21.2069 Z" stroke-linecap="round" />
</g>
<g transform="matrix(1 0 0 1 475.58 546.26)"  >
<linearGradient id="SVGID_paint6_linear_115_86_9" gradientUnits="userSpaceOnUse" gradientTransform="matrix(1 0 0 1 0 0)"  x1="16.8078" y1="13.0071" x2="10.0409" y2="22.9937">
<stop offset="0%" style="stop-color:rgb(0,177,188);stop-opacity: 0.5"/>
<stop offset="100%" style="stop-color:rgb(0,0,0);stop-opacity: 0.5"/>
</linearGradient>
<path style="stroke: none; stroke-width: 1; stroke-dasharray: none; stroke-linecap: butt; stroke-dashoffset: 0; stroke-linejoin: miter; stroke-miterlimit: 4; fill: url(#SVGID_paint6_linear_115_86_9); fill-rule: nonzero; opacity: 1;" vector-effect="non-scaling-stroke"  transform=" translate(-15.48, -18.42)" d="M 7.23368 21.2069 C 9.78906 23.2373 13.2102 23.9506 16.5772 22.8141 C 19.9441 21.6775 22.5058 18.9445 23.7304 15.6382 C 21.175 13.6078 17.7538 12.8944 14.3869 14.031 C 11.0199 15.1676 8.45822 17.9006 7.23368 21.2069 Z" stroke-linecap="round" />
</g>
<g transform="matrix(1 0 0 1 475.58 546.26)"  >
<linearGradient id="SVGID_paint7_linear_115_86_10" gradientUnits="userSpaceOnUse" gradientTransform="matrix(1 0 0 1 0 0)"  x1="16.8078" y1="13.0071" x2="14.1687" y2="23.841">
<stop offset="0%" style="stop-color:rgb(0,0,0);stop-opacity: 0.05"/>
<stop offset="100%" style="stop-color:rgb(0,0,0);stop-opacity: 0"/>
</linearGradient>
<path style="stroke: url(#SVGID_paint7_linear_115_86_10); stroke-width: 0.056338; stroke-dasharray: none; stroke-linecap: butt; stroke-dashoffset: 0; stroke-linejoin: miter; stroke-miterlimit: 4; fill: none; fill-rule: nonzero; opacity: 1;" vector-effect="non-scaling-stroke"  transform=" translate(-15.48, -18.42)" d="M 16.5682 22.7874 C 13.2176 23.9184 9.81361 23.2124 7.2672 21.1975 C 8.49194 17.9068 11.0444 15.189 14.3959 14.0577 C 17.7465 12.9266 21.1504 13.6326 23.6968 15.6476 C 22.4721 18.9383 19.9196 21.656 16.5682 22.7874 Z" stroke-linecap="round" />
</g>
</svg>